<svg
      xmlns="http://www.w3.org/2000/svg"
      viewBox="0 0 2825.2 331.5"
    >
      <title>
        Wayfair Partner Home Logo
      </title>
      <g>
        <path
          fill="#4E4E4F"
          d="M1445.8,175.6c0,19.8-10.7,39.1-37.3,39.1h-33.3v47.1h-16.6V136.5h49.9
				C1435.1,136.5,1445.8,156.1,1445.8,175.6z M1429.3,175.6c0-11.6-6-23.8-20.9-23.8h-33.1v47.5h32.2
				C1423.1,199.3,1429.3,187.6,1429.3,175.6z"
        />
        <path
          fill="#4E4E4F"
          d="M1537.9,229.7h-53.9l-12.2,32.2h-17.3l47.7-125.4h17.5l47.7,125.4h-17.3L1537.9,229.7z M1532.5,215.1
				l-21.5-56.8l-21.5,56.8H1532.5z"
        />
        <path
          fill="#4E4E4F"
          d="M1627.3,214.6h-16.4v47.3h-16.6V136.5h47.1c27.3,0,37.9,19.7,37.9,39.1c0,18.2-9.1,36.4-32.8,38.8l33.3,47.5
				H1660L1627.3,214.6z M1610.9,199.5h26.2c18.4,0,25.7-9.6,25.7-23.8c0-14-8.2-23.8-20.9-23.8h-30.9V199.5z"
        />
        <path
          fill="#4E4E4F"
          d="M1793.3,151.8h-38.2v110.1h-16.6V151.8h-38.2v-15.3h93V151.8z"
        />
        <path
          fill="#4E4E4F"
          d="M1913.9,136.5v125.4h-16l-57.9-95.6v95.6h-16.6V136.5h16.4l57.5,95.2v-95.2H1913.9z"
        />
        <path
          fill="#4E4E4F"
          d="M2033.5,246.6v15.3h-75.7V136.5h73.9v15.3h-57.5v40.8h50.2V208h-50.2v38.6H2033.5z"
        />
        <path
          fill="#4E4E4F"
          d="M2102.3,214.6h-16.4v47.3h-16.6V136.5h47.1c27.3,0,37.9,19.7,37.9,39.1c0,18.2-9.1,36.4-32.8,38.8l33.3,47.5
				h-19.8L2102.3,214.6z M2085.9,199.5h26.2c18.4,0,25.7-9.6,25.7-23.8c0-14-8.2-23.8-20.9-23.8h-30.9V199.5z"
        />
        <path
          fill="#4E4E4F"
          d="M2340.7,136.5v125.4h-16.6v-54.8h-61.5v54.8h-16.6V136.5h16.6V192h61.5v-55.5H2340.7z"
        />
        <path
          fill="#4E4E4F"
          d="M2375.8,199.5c0-35.7,27.7-64.4,63.3-64.4c35.9,0,63.7,28.8,63.7,64.4c0,35.5-27.8,64.2-63.7,64.2
				C2403.5,263.7,2375.8,235,2375.8,199.5z M2486.3,199.5c0-26.9-20.4-49.1-47.1-49.1c-26.4,0-46.8,22.2-46.8,49.1
				c0,26.8,20.4,49,46.8,49C2465.9,248.4,2486.3,226.2,2486.3,199.5z"
        />
        <path
          fill="#4E4E4F"
          d="M2665,261.9l-11.6-95.6l-39.9,81.9h-14.4l-40.2-81.9l-11.5,95.6h-16.2l15.3-125.4h14.9l44.8,93l44.6-93h14.9
				l15.5,125.4H2665z"
        />
        <path
          fill="#4E4E4F"
          d="M2793.7,246.6v15.3H2718V136.5h73.9v15.3h-57.5v40.8h50.2V208h-50.2v38.6H2793.7z"
        />
      </g>
      <g>
        <path
          fill="#7F187F"
          d="M485,100.2h-57.2c-5.2,0-9.4,4.2-9.4,9.4v12.8c0,3.3,2.9,6.1,6.3,6.1h9.4c0.4,0,0.6,0.2,0.7,0.4
				c0.1,0.1,0.3,0.5,0.2,1L412.6,197c-0.1,0.4-0.6,0.7-1.1,0.7c-0.6,0-0.8-0.3-0.9-0.7l-33.5-90.9l0,0l0,0c-1-2.3-3.1-3.8-5.4-3.9l0,0
				l-0.2,0h-19.7h-0.2l0,0c-2.4,0.1-4.5,1.6-5.5,3.9l0,0l0,0L312.5,197c-0.1,0.4-0.3,0.7-0.9,0.7c-0.5,0-1-0.3-1.1-0.7
				c-0.8-2.4-22.4-67.2-22.4-67.2c-0.1-0.5,0.1-0.8,0.2-1c0.1-0.2,0.3-0.4,0.7-0.4h9.4c3.4,0,6.3-2.8,6.3-6.1v-12.8
				c0-5.2-4.2-9.4-9.4-9.4h-57.2c-2,0-3.9,1-5.1,2.6c-1.1,1.6-1.5,3.5-0.9,5.3c0.8,2.3,1.8,5.1,2.7,8c0.9,2.8,1.9,5.6,2.8,8.1
				c1,2.7,3.2,4.3,5.8,4.3h9.6c0.2,0,0.7,0,1.1,0.8L298.6,260c0.9,2.6,3.2,4.3,5.8,4.3h13.8c2.5,0,4.9-1.6,5.8-4
				c12.2-35.4,35.6-102.8,36.5-105.1c0.3-0.8,0.9-0.9,1.1-0.9c0.2,0,0.9,0.1,1.1,0.8c0.9,2.4,24.3,69.8,36.6,105.1
				c0.9,2.5,3.2,4.1,5.8,4.1h13.8c2.6,0,4.9-1.7,5.8-4.3l44.4-130.7c0.4-0.8,0.9-0.8,1.1-0.8h9.6c2.6,0,4.8-1.6,5.8-4.2
				c0.9-2.5,1.8-5.3,2.8-8.1c1-2.9,1.9-5.7,2.8-8.1c0.6-1.7,0.2-3.7-0.9-5.3C488.9,101.1,487,100.2,485,100.2z"
        />
        <path
          fill="#7F187F"
          d="M1154.6,237.9h-10.4c-1.6,0-2.9-1.4-2.9-2.9V106.1c0-2.4-2-4.1-4.3-4.1h-30.3c-1.2,0-2.6,0.6-3.3,1.6
				c-1.6,2-9.4,11.8-12.6,15.7c-2.2,2.8-0.2,6.9,3.1,6.9c1.4,0,3.9,0,3.9,0c1.6,0,2.9,1.6,2.9,2.9v105.5c0,1-0.6,2.2-0.8,2.4
				c-3.3,4.3-10.6,13.4-14.2,17.9c-2.4,2.9-0.4,7.1,3.1,7.1h11.6h20h21.4c1.2,0,2.4-0.4,2.9-1.2c3.1-3.9,9.2-11.6,12.4-15.5
				C1160.1,242.1,1158.1,237.9,1154.6,237.9z"
        />
        <circle fill="#7F187F" cx="1120.8" cy="61.8" r="22.8" />
        <path
          fill="#7F187F"
          d="M1321.4,115.3c0-2.2-1.2-4.3-4.1-4.3h-5.3v14h2v-5.1h1.8l3.5,5.1h2.4l-3.7-5.3
				C1320.4,119.4,1321.4,117.3,1321.4,115.3z M1314,117.8v-5.1h3.5c1.6,0,2.2,1.4,2.2,2.6c0,1.2-0.6,2.6-2.4,2.6H1314z"
        />
        <path
          fill="#7F187F"
          d="M1316.3,105.9c-6.7,0-12,5.3-12,12c0,6.7,5.3,12,12,12c6.7,0,12-5.3,12-12
				C1328.3,111.2,1322.8,105.9,1316.3,105.9z M1316.3,128.1c-5.7,0-10.2-4.5-10.2-10.2c-0.2-5.7,4.5-10.2,10.2-10.2
				c5.7,0,10.2,4.5,10.2,10.2C1326.5,123.5,1322,128.1,1316.3,128.1z"
        />
        <path
          fill="#7F187F"
          d="M634.3,238.5c-8.8,0.4-13.2-3.7-13.2-13.8v-72.3c0-31.6-26.5-51.7-56.4-51.7c-46.4,0-63.1,22-65,46.6
				c-0.2,2.4,1.8,4.5,4.3,4.5h22.8c2.2,0,3.9-1.8,4.1-3.9c1.2-12.8,9.8-22.2,24.2-22.2c15.9,0,25.5,8.1,25.5,26.3v15.7h-8.3
				c-28.5,0-48.1,3.7-61.3,12s-19.8,23.6-19.8,41.5c0,13.2,4.5,24,13.6,32.6c9,8.6,19.7,12.4,33.6,12.4c8.3,0,16.1-1.8,24-5.5
				c6.9-3.1,13.6-7.1,20.2-13c1.4-1.4,3.7-1,4.7,0.8c6.5,11.4,13.6,15.1,27.1,15.1c12.2,0,18.1-11.4,23.4-18.3
				C639.8,242.6,637.7,238.3,634.3,238.5z M580.9,226.9h-0.2c0,1-1.6,2.4-2.2,2.9c-4.1,3.3-8.3,6.1-12.2,7.9c-4.3,2-8.6,2.4-12.6,2.4
				c-6.3,0-12.6-2.4-16.7-6.9c-4.1-4.5-6.3-10.2-6.3-16.9c0-9.4,3.5-15.7,10.6-20.4c7.1-4.7,18.7-6.9,32.6-6.9h6.9V226.9z"
        />
        <path
          fill="#7F187F"
          d="M1069.1,238.5c-8.8,0.4-13.2-3.7-13.2-13.8v-72.3c0-31.6-26.5-51.7-56.4-51.7c-46.4,0-63.1,22-65.1,46.6
				c-0.2,2.4,1.8,4.5,4.3,4.5h22.8c2.2,0,3.9-1.8,4.1-3.9c1.2-12.8,9.8-22.2,24.2-22.2c15.9,0,25.5,8.1,25.5,26.3v15.7h-8.3
				c-28.5,0-48.1,3.7-61.3,12S926,203.3,926,221.2c0,13.2,4.5,24,13.6,32.6c9,8.6,19.7,12.4,33.6,12.4c8.3,0,16.1-1.8,24-5.5
				c6.9-3.1,13.6-7.1,20.2-13c1.4-1.4,3.7-1,4.7,0.8c6.5,11.4,13.6,15.1,27.1,15.1c12.2,0,18.1-11.4,23.4-18.3
				C1074.6,242.6,1072.4,238.3,1069.1,238.5z M1015.6,226.9h-0.2c0,1-1.6,2.4-2.2,2.9c-4.1,3.3-8.3,6.1-12.2,7.9
				c-4.3,2-8.6,2.4-12.6,2.4c-6.3,0-12.6-2.4-16.7-6.9c-4.1-4.5-6.3-10.2-6.3-16.9c0-9.4,3.5-15.7,10.6-20.4
				c7.1-4.7,18.7-6.9,32.6-6.9h6.9V226.9z"
        />
        <path
          fill="#7F187F"
          d="M1284.6,101.4c-2.1-1.1-7.4-1.6-12-1.6c-7.5,0-13.3,1-18.4,3.2l-0.4,0.2c-1.9,0.9-3.7,1.9-5.5,3.2
				c-4.8,3-11.6,8-17.2,14.8c0,0-2.2,1.7-2.6-1.1v-14.3c0-1.1-0.5-2.1-1.2-2.9c-0.8-0.8-1.9-1.3-3.1-1.3h-30.5c-1.1,0-2.2,0.4-3.1,1.5
				c0,0-9.6,11.9-12.7,16c-1.9,2.4-0.7,6.9,3.3,6.9c1.3,0,3.8,0,3.8,0c1.6,0,3,1.3,3,3v15.7v90.3c0,0.6-0.2,1.7-0.7,2.4
				c-3,3.7-10.6,13.3-14.3,18c-2.2,2.7-0.2,6.9,3.3,6.9h11.9h19.7h34c2.3,0,4.2-1.9,4.2-4.2V242c0-2.3-1.9-4.2-4.2-4.2h-10.4
				c-1.7,0-3-1.4-3-3c0,0,0-38.2,0-61.6c1.2-29.3,18.7-38.3,27.1-40.9c0.4-0.1,0.8-0.2,1.2-0.4c0.1,0,0.2-0.1,0.3-0.1
				c2.4-0.6,4.8-0.9,7-0.9c10,0,13.7,1.5,19.2,2.9c2.3,0.6,4.2-1.9,4.2-4.2l0-24C1287.6,103.6,1286.1,102.2,1284.6,101.4z"
        />
        <path
          fill="#7F187F"
          d="M927.3,101.9h-47.6c-1.6,0-2.9-1.4-2.9-2.9V75.4c0-11.4,5.9-22.8,18.1-22.8c13.8,0,15.9,11.6,16.5,20.4
				c0.2,2.4,2.2,4.1,4.1,4.1h19.7c2.4,0,3.9-2.2,3.9-4.1C938.6,43.6,919.9,31,889.9,31c-18.3,0-30.3,5.7-39.3,16.7
				c-9,11-13.6,23.2-13.6,45.2c0,0,0,4.1,0,5.9c0,2-1.8,2.9-2.9,2.9l-81.3,0.2c-2.4,0-4.3,1.8-4.3,4.1V122c0,2.4,2,4.3,4.3,4.3h8.7
				c2.2,0,3.5,2.4,2.8,4.1c0,0-22.4,52.1-31.4,72.9c-1,2.4-4.5,2.4-5.5,0c-9.2-21-31.8-72.9-31.8-72.9c-0.8-2,0.6-4.1,2.8-4.1h6.1
				c2.4,0,4.3-2,4.3-4.3v-15.9c0-2.4-2-4.1-4.3-4.1h-73.5c-3.3,0-5.1,3.5-3.7,6.3c2.2,3.9,7.1,13.2,8.5,15.9c0.4,0.8,1.8,2.2,3.5,2.2
				h14.2c1.2,0,2.2,0.6,2.8,1.8c0,0,52.3,117.4,54.2,121.5c2.3,6.7,1.6,11.3-0.1,16.3c-2.4,9.6-18.5,26.8-27.4,23.7
				c-6.1-2.1-6.9-13.2-14.2-14.6c-1.2-0.2-2.5-0.1-4,0.5c-1.3,0.5-13.2,15.8-15.8,18.4c-1.2,1.2-1.5,4.1,0,5.7
				c6.5,6.7,17.4,15.7,33.2,16.3c19.4,0.8,38.5-1.8,56.1-35.4c0,0,56.3-137.6,63-152.4c0.6-1.2,2-1.6,2.8-1.6c10.5,0,29.7,0,29.7,0
				c1.6,0,2.9,1.4,2.9,2.9v105.7c0,0.8-0.2,1.6-0.8,2.4c-3.5,4.5-10.6,13.4-14.2,17.9c-2.2,2.8-0.4,6.9,3.3,6.9h66.4
				c2.4,0,4.3-2,4.3-4.3v-15.7c0-2.4-2-4.3-4.3-4.3H880c-1.6,0-2.9-1.4-2.9-2.9V129.2c0-1.6,1.4-2.9,2.9-2.9h35.1
				c1.2,0,2.6-0.6,3.3-1.6c2.9-3.9,9-11.8,12.2-15.9C932.8,106.1,930.8,101.9,927.3,101.9z"
        />
      </g>
      <g>
        <path
          fill="#82D170"
          d="M210.6,152.8l-11.5-43.3c-0.4-1.5-1.5-2.6-3-3l-43.3-11.5c-1.4-0.4-3,0-4,1.1l-29,29l60.7,60.6l29-29
				C210.5,155.8,210.9,154.2,210.6,152.8z"
        />
        <path
          fill="#F8CF1C"
          d="M29.1,218.9l11.5,43.2c0.4,1.5,1.5,2.6,3,3l43.3,11.5c1.4,0.4,3,0,4-1.1l29-29l-60.6-60.6l-29,29
				C29.2,215.9,28.7,217.4,29.1,218.9z"
        />
        <path
          fill="#C6D636"
          d="M86.8,95.1l-43.2,11.5c-1.5,0.4-2.6,1.5-3,3l-11.5,43.2c-0.4,1.4,0,3,1.1,4l29,29l60.6-60.6l-29-29
				C89.8,95.1,88.3,94.7,86.8,95.1z"
        />
        <path
          fill="#D57DEA"
          d="M209.1,214.4l-28.6-28.6l-60.6,60.6l28.6,28.6c1.3,1.3,3.2,1.8,5,1.4l42.1-11.2c1.8-0.5,3.2-1.9,3.7-3.7
				l11.2-42.1C210.9,217.6,210.4,215.7,209.1,214.4z"
        />
        <polygon
          fill="#7F187F"
          points="119.8,125.2 59.2,185.8 119.9,246.5 180.5,185.8 	"
        />
      </g>
    </svg>